HIERARCHY
ROOT SpineBase
{
  OFFSET 0.000000 0.000000 0.000000
  CHANNELS 6 Xposition Yposition Zposition Zrotation Xrotation Yrotation
  JOINT SpineMid
  {
    OFFSET 0.000000 30.029344 0.000000
    CHANNELS 3 Zrotation Xrotation Yrotation
    JOINT SpineShoulder
    {
      OFFSET -0.011133 22.308538 -0.726763
      CHANNELS 3 Zrotation Xrotation Yrotation
      JOINT Neck
      {
        OFFSET -0.009590 7.384155 -0.590253
        CHANNELS 3 Zrotation Xrotation Yrotation
        JOINT Head
        {
          OFFSET 2.176934 14.353694 -0.362300
          CHANNELS 3 Zrotation Xrotation Yrotation
          End Site
          {
            OFFSET 0 0 0
          }
        }
      }
      JOINT ShoulderLeft
      {
        OFFSET -15.731200 -1.694979 -6.866011
        CHANNELS 3 Zrotation Xrotation Yrotation
        JOINT ElbowLeft
        {
          OFFSET -5.625579 -25.528238 -2.379360
          CHANNELS 3 Zrotation Xrotation Yrotation
          JOINT WristLeft
          {
            OFFSET 0.698480 -24.013883 -7.621359
            CHANNELS 3 Zrotation Xrotation Yrotation
            JOINT HandLeft
            {
              OFFSET 0.335281 -6.871449 0.085764
              CHANNELS 3 Zrotation Xrotation Yrotation
              JOINT HandTipLeft
              {
                OFFSET -0.161053 -7.196254 -0.634399
                CHANNELS 3 Zrotation Xrotation Yrotation
                End Site
                {
                  OFFSET 0 0 0
                }
              }
              JOINT ThumbLeft
              {
                OFFSET -3.238881 -0.475010 -2.274826
                CHANNELS 3 Zrotation Xrotation Yrotation
                End Site
                {
                  OFFSET 0 0 0
                }
              }
            }
          }
        }
      }
      JOINT ShoulderRight
      {
        OFFSET 17.107717 -3.303911 3.236460
        CHANNELS 3 Zrotation Xrotation Yrotation
        JOINT ElbowRight
        {
          OFFSET 2.275421 -29.269933 4.307758
          CHANNELS 3 Zrotation Xrotation Yrotation
          JOINT WristRight
          {
            OFFSET 5.614923 -26.161572 -4.040234
            CHANNELS 3 Zrotation Xrotation Yrotation
            JOINT HandRight
            {
              OFFSET -0.930809 -7.852530 -0.213607
              CHANNELS 3 Zrotation Xrotation Yrotation
              JOINT HandTipRight
              {
                OFFSET 0.319157 -8.352014 -2.557123
                CHANNELS 3 Zrotation Xrotation Yrotation
                End Site
                {
                  OFFSET 0 0 0
                }
              }
              JOINT ThumbRight
              {
                OFFSET -1.745197 -2.395368 0.152087
                CHANNELS 3 Zrotation Xrotation Yrotation
                End Site
                {
                  OFFSET 0 0 0
                }
              }
            }
          }
        }
      }
    }
  }
  JOINT HipLeft
  {
    OFFSET -6.630182 0.600954 -5.131549
    CHANNELS 3 Zrotation Xrotation Yrotation
    JOINT KneeLeft
    {
      OFFSET -6.382734 -35.607172 5.277815
      CHANNELS 3 Zrotation Xrotation Yrotation
      JOINT AnkleLeft
      {
        OFFSET -3.301518 -36.021128 7.505878
        CHANNELS 3 Zrotation Xrotation Yrotation
        JOINT FootLeft
        {
          OFFSET -2.453951 -7.448682 -6.396938
          CHANNELS 3 Zrotation Xrotation Yrotation
          End Site
          {
            OFFSET 0 0 0
          }
        }
      }
    }
  }
  JOINT HipRight
  {
    OFFSET 6.948596 1.105175 -2.083046
    CHANNELS 3 Zrotation Xrotation Yrotation
    JOINT KneeRight
    {
      OFFSET 0.973019 -35.966897 2.200960
      CHANNELS 3 Zrotation Xrotation Yrotation
      JOINT AnkleRight
      {
        OFFSET 0.093241 -37.194739 4.076970
        CHANNELS 3 Zrotation Xrotation Yrotation
        JOINT FootRight
        {
          OFFSET 0.710040 -7.750091 -6.603647
          CHANNELS 3 Zrotation Xrotation Yrotation
          End Site
          {
            OFFSET 0 0 0
          }
        }
      }
    }
  }
}
MOTION
Frames: 12
Frame Time: 0.033333
-15.519738 80.180165 360.789253 -0.000000 0.000000 -12.653385 -0.000000 0.000000 12.653385 -0.000000 0.000000 0.000000 -0.000000 0.000000 0.000000 0.000000 0.000000 0.000000 -0.000000 0.000000 0.000000 -0.000000 0.000000 0.000000 -0.000000 0.000000 0.000000 -0.000000 0.000000 0.000000 0.000000 0.000000 0.000000 0.000000 0.000000 0.000000 -0.000000 0.000000 0.000000 -0.000000 0.000000 0.000000 -0.000000 0.000000 0.000000 -0.000000 0.000000 0.000000 0.000000 0.000000 0.000000 0.000000 0.000000 0.000000 -0.000000 0.000000 12.653385 -0.000000 0.000000 0.000000 -0.000000 0.000000 0.000000 0.000000 0.000000 0.000000 -0.000000 0.000000 12.653385 -0.000000 0.000000 0.000000 -0.000000 0.000000 0.000000 0.000000 0.000000 0.000000
-15.507587 80.175914 360.801489 0.011158 -0.061571 -12.783103 -0.024504 0.057577 12.783121 -0.000000 0.000000 0.000000 -0.000000 0.000000 0.000000 0.000000 0.000000 0.000000 -0.000000 0.000000 0.000000 -0.000000 0.000000 0.000000 -1.164872 -0.345152 -0.034905 2.910759 -1.008403 -0.085740 0.000000 0.000000 0.000000 0.000000 0.000000 0.000000 -0.000000 0.000000 0.000000 -0.942298 0.187769 0.187654 1.639571 2.006790 -0.475245 -0.885671 -0.403674 0.390462 0.000000 0.000000 0.000000 0.000000 0.000000 0.000000 -0.024504 0.057577 12.783121 -0.000000 0.000000 0.000000 -0.000000 0.000000 0.000000 0.000000 0.000000 0.000000 -0.024504 0.057577 12.783121 -0.000000 0.000000 0.000000 0.864317 -0.226458 -0.756254 0.000000 0.000000 0.000000
-15.493901 80.172616 360.813011 0.025959 -0.121409 -12.909972 -0.052428 0.112540 12.910051 -0.000000 0.000000 0.000000 -0.000000 0.000000 0.000000 0.000000 0.000000 0.000000 -0.000000 0.000000 0.000000 -0.578627 -0.676749 0.160865 -1.348311 0.293113 -0.194401 5.094062 -2.174923 -0.136297 0.000000 0.000000 0.000000 0.000000 0.000000 0.000000 -0.000000 0.000000 0.000000 -1.629893 0.266388 0.313535 2.833039 3.807178 -0.860168 -1.581593 -0.706046 0.710263 0.000000 0.000000 0.000000 0.000000 0.000000 0.000000 -0.052428 0.112540 12.910051 -0.000000 0.000000 0.000000 -1.043943 0.723514 0.659232 0.000000 0.000000 0.000000 -0.052428 0.112540 12.910051 -0.000000 0.000000 0.000000 1.583650 -0.379423 -1.381070 0.000000 0.000000 0.000000
-15.478679 80.170272 360.823819 0.044403 -0.179520 -13.033997 -0.083746 0.164881 13.034187 -0.000000 0.000000 0.000000 -0.000000 0.000000 0.000000 0.000000 0.000000 0.000000 -0.000000 0.000000 0.000000 -0.793275 -0.935435 0.218693 -1.487963 0.814332 -0.231543 6.507358 -3.470721 -0.136844 0.000000 0.000000 0.000000 0.000000 0.000000 0.000000 -0.602299 0.628923 -0.036489 -1.495973 -0.380184 0.403662 3.594934 5.377657 -1.151373 -2.071953 -0.937186 0.971111 0.000000 0.000000 0.000000 0.000000 0.000000 0.000000 -0.083746 0.164881 13.034187 -0.000000 0.000000 0.000000 -1.377801 0.880283 0.894424 0.000000 0.000000 0.000000 -0.083746 0.164881 13.034187 -0.955569 -0.189025 -0.106777 3.113730 -0.258904 -1.778338 0.000000 0.000000 0.000000
-15.461920 80.168881 360.833914 0.066488 -0.235913 -13.155185 -0.118435 0.214589 13.155544 -0.000000 0.000000 0.000000 -0.000000 0.000000 0.000000 0.000000 0.000000 0.000000 -0.000000 0.000000 0.000000 -0.957978 -1.140312 0.262233 -1.269801 1.580057 -0.235092 7.124549 -4.870026 -0.090474 0.000000 0.000000 0.000000 0.000000 0.000000 0.000000 -0.599318 0.618304 -0.036948 -1.773523 -0.473739 0.420261 3.931292 6.699707 -1.341813 -2.341368 -1.130901 1.182473 0.000000 0.000000 0.000000 0.000000 0.000000 0.000000 -0.118435 0.214589 13.155544 -0.000000 0.000000 0.000000 -1.586271 0.903431 1.065145 0.000000 0.000000 0.000000 -0.118435 0.214589 13.155544 -1.126299 -0.231050 -0.126285 3.713367 -0.205734 -2.126538 0.000000 0.000000 0.000000
-15.443626 80.168444 360.843296 0.092215 -0.290594 -13.273548 -0.156473 0.261658 13.274139 -0.000000 0.000000 0.000000 -0.000000 0.000000 0.000000 0.000000 0.000000 0.000000 -0.000000 0.000000 0.000000 -1.072608 -1.290977 0.291913 -0.698386 2.583660 -0.215386 6.934081 -6.351784 -0.017464 0.000000 0.000000 0.000000 0.000000 0.000000 0.000000 -0.000000 0.000000 0.000000 -2.470438 -0.041490 0.373527 3.841286 7.757250 -1.422527 -2.374231 -1.321604 1.350577 0.000000 0.000000 0.000000 0.000000 0.000000 0.000000 -0.156473 0.261658 13.274139 -0.000000 0.000000 0.000000 -1.669228 0.793917 1.171015 0.000000 0.000000 0.000000 0.586902 0.586496 13.321406 -2.021502 -0.406273 -0.194351 4.093906 -0.077929 -2.351862 0.000000 0.000000 0.000000
-15.414277 80.177802 360.848302 0.130138 -0.339897 -13.493063 -0.205856 0.300149 13.493988 -0.000000 0.000000 0.000000 -0.000000 0.000000 0.000000 0.000000 0.000000 0.000000 -0.000000 0.000000 0.000000 -1.176808 -1.414600 0.319169 0.821435 4.035969 -0.207503 4.788035 -8.060402 0.030023 0.000000 0.000000 0.000000 0.000000 0.000000 0.000000 -0.633468 0.504397 -0.051286 -2.414981 -0.694354 0.458091 4.286923 9.526975 -1.685968 -2.933636 -4.827064 1.560512 0.000000 0.000000 0.000000 0.000000 0.000000 0.000000 -0.205856 0.300149 13.493988 -0.000000 0.000000 0.000000 -1.720642 0.606820 1.274838 0.000000 0.000000 0.000000 -0.205856 0.300149 13.493988 -1.223900 -0.260902 -0.137569 4.182036 0.433110 -2.383661 0.000000 0.000000 0.000000
-15.370933 80.168904 360.865949 0.180428 -0.393057 -13.656259 -0.268131 0.339344 13.657672 -0.000000 0.000000 0.000000 -0.000000 0.000000 0.000000 0.000000 0.000000 0.000000 -0.000000 0.000000 0.000000 -1.186123 -1.467092 0.319991 2.146264 5.172583 -0.212412 2.155285 -9.935731 0.011746 0.000000 0.000000 0.000000 0.000000 0.000000 0.000000 -0.957773 0.453105 -0.102076 -2.429772 -0.871938 0.507895 1.390060 10.455808 -1.392563 -0.362234 -2.927923 2.049628 0.000000 0.000000 0.000000 0.000000 0.000000 0.000000 -0.268131 0.339344 13.657672 -0.000000 0.000000 0.000000 -1.484625 0.238258 1.192401 0.000000 0.000000 0.000000 -0.268131 0.339344 13.657672 -1.168916 -0.225140 -0.130967 4.023819 0.724021 -2.272303 0.000000 0.000000 0.000000
-15.343028 80.160268 360.872680 0.220097 -0.436089 -13.723008 0.023328 -0.390024 13.729412 -0.083431 -0.044571 0.000353 -0.888621 0.572310 0.030231 0.000000 0.000000 0.000000 -0.066727 0.865096 -0.003709 -1.181384 -1.516465 0.316630 3.640198 7.399954 -0.220107 0.219391 -11.229868 -0.163034 0.000000 0.000000 0.000000 0.000000 0.000000 0.000000 -0.066727 0.865096 -0.003709 -2.422248 -1.137331 0.106627 -1.920887 10.294660 -0.685187 1.681769 -2.133173 2.114444 0.000000 0.000000 0.000000 0.000000 0.000000 0.000000 -0.317272 0.371423 13.724874 -0.000000 0.000000 0.000000 -1.095145 -0.271164 1.026110 0.000000 0.000000 0.000000 -0.317272 0.371423 13.724874 -1.038052 -0.252126 -0.116676 3.832582 1.007624 -2.214905 0.000000 0.000000 0.000000
-15.346758 80.162844 360.869214 0.233648 -0.474369 -13.703361 0.025481 -0.398561 13.710414 -0.090153 -0.029996 0.000526 -0.958259 0.355305 0.065365 0.000000 0.000000 0.000000 -0.073744 0.897632 -0.004154 -1.058252 -1.446439 0.281641 4.926867 9.119961 -0.240889 -1.414643 -12.572705 -0.359632 0.000000 0.000000 0.000000 0.000000 0.000000 0.000000 1.225288 -0.669548 0.062461 -1.896016 -1.038912 -0.518574 -1.834606 11.303167 -0.218369 -1.200431 -5.235041 1.932850 0.000000 0.000000 0.000000 0.000000 0.000000 0.000000 -0.339381 0.405511 13.705529 -0.000000 0.000000 0.000000 -0.581270 -1.200210 0.895070 0.000000 0.000000 0.000000 -0.339381 0.405511 13.705529 -0.907590 -0.331536 -0.102911 3.703485 1.127650 -2.230735 0.000000 0.000000 0.000000
-15.335888 80.160606 360.851273 0.296976 -0.514439 -13.711350 -0.001612 -0.423980 13.720088 -0.114457 -0.018976 0.000251 -1.040515 0.196131 0.094232 0.000000 0.000000 0.000000 -0.080346 0.944950 -0.004536 -0.721434 -1.351560 0.181857 5.664918 10.785906 -0.199605 -3.349114 -14.225112 -0.639095 0.000000 0.000000 0.000000 0.000000 0.000000 0.000000 3.719332 -2.582535 0.332787 -1.112237 -0.997815 -1.615579 -3.524520 10.621092 0.878056 -4.687530 -7.469005 1.698435 0.000000 0.000000 0.000000 0.000000 0.000000 0.000000 -0.410461 0.429377 13.714222 -0.000000 0.000000 0.000000 0.031655 -2.005543 0.643889 0.000000 0.000000 0.000000 -0.410461 0.429377 13.714222 -0.701941 -0.422752 -0.080560 3.133951 1.110937 -1.953727 0.000000 0.000000 0.000000
-15.421684 80.203034 360.831104 0.256533 -0.581590 -13.377663 0.001878 -0.401608 13.385212 -0.124093 -0.004351 -0.001815 -0.833354 -0.138779 0.153169 0.000000 0.000000 0.000000 -0.041284 0.977098 -0.001680 -0.274510 -1.097415 0.052736 5.127027 12.387971 -0.017493 -2.891388 -15.184465 -0.725202 0.000000 0.000000 0.000000 0.000000 0.000000 0.000000 8.119783 -4.692922 1.013492 -0.365893 -1.644962 -3.392871 -2.378910 8.909690 2.106524 -11.078429 -9.657884 1.083128 0.000000 0.000000 0.000000 0.000000 0.000000 0.000000 -0.384148 0.506446 13.380663 -0.000000 0.000000 0.000000 0.566955 -2.595830 0.389488 0.000000 0.000000 0.000000 -0.384148 0.506446 13.380663 -0.000000 0.000000 0.000000 2.103474 0.622313 -1.735839 0.000000 0.000000 0.000000
